#N canvas 728 136 304 282 12;
#N canvas 1110 75 441 457 random_earcon 0;
#X obj 27 290 dac~;
#N canvas 0 50 543 472 random 0;
#X obj 29 175 bng 15 250 50 0 empty empty empty 17 7 0 10 -262144 -1
-1;
#X obj 29 255 random 800;
#X obj 29 287 + 200;
#X floatatom 29 318 5 0 0 0 - - -;
#X obj 383 245 random 500;
#X obj 383 287 + 400;
#X floatatom 383 317 5 0 0 0 - - -;
#X obj 115 177 bng 15 250 50 0 empty empty empty 17 7 0 10 -262144
-1 -1;
#X obj 192 180 bng 15 250 50 0 empty empty empty 17 7 0 10 -262144
-1 -1;
#X obj 271 178 bng 15 250 50 0 empty empty empty 17 7 0 10 -262144
-1 -1;
#X obj 29 122 delay 1000;
#X obj 115 119 delay 500;
#X obj 192 110 delay 250;
#X obj 271 101 delay 125;
#X obj 29 62 metro 2000;
#X obj 29 26 inlet;
#X obj 29 346 outlet;
#X obj 383 346 outlet;
#X obj 118 235 + 200;
#X obj 365 168 r randomize-s;
#X connect 0 0 1 0;
#X connect 0 0 4 0;
#X connect 1 0 2 0;
#X connect 2 0 3 0;
#X connect 3 0 16 0;
#X connect 4 0 5 0;
#X connect 5 0 6 0;
#X connect 6 0 17 0;
#X connect 7 0 1 0;
#X connect 7 0 4 0;
#X connect 8 0 1 0;
#X connect 8 0 4 0;
#X connect 9 0 1 0;
#X connect 9 0 4 0;
#X connect 10 0 0 0;
#X connect 11 0 7 0;
#X connect 12 0 8 0;
#X connect 13 0 9 0;
#X connect 14 0 10 0;
#X connect 14 0 11 0;
#X connect 14 0 12 0;
#X connect 14 0 13 0;
#X connect 15 0 14 0;
#X connect 18 0 1 1;
#X connect 19 0 4 1;
#X connect 19 0 18 1;
#X restore 201 165 pd random;
#X obj 201 191 s~ left;
#X obj 261 190 s~ right;
#N canvas 1296 113 381 453 envelope 0;
#X obj 41 234 osc~;
#X obj 119 236 osc~;
#X obj 23 180 vline~;
#X obj 102 180 vline~;
#X obj 102 267 *~;
#X obj 23 266 *~;
#X obj 40 207 r~ left;
#X obj 119 208 r~ right;
#X obj 23 341 outlet~;
#X obj 21 21 inlet;
#X msg 21 104 1 300 \, 0.7 400 400 \, 0 500 1600;
#X msg 34 130 1 300 \, 0.7 400 400 \, 0 500 1600;
#X obj 22 306 *~ 0.3;
#X connect 0 0 5 1;
#X connect 1 0 4 1;
#X connect 2 0 5 0;
#X connect 3 0 4 0;
#X connect 4 0 12 0;
#X connect 5 0 12 0;
#X connect 6 0 0 0;
#X connect 7 0 1 0;
#X connect 9 0 11 0;
#X connect 9 0 10 0;
#X connect 10 0 2 0;
#X connect 11 0 3 0;
#X connect 12 0 8 0;
#X restore 26 167 pd envelope;
#X obj 56 207 rev2~ 85 93;
#X obj 26 258 *~ 0.1;
#X obj 26 38 r random-s;
#X connect 1 0 2 0;
#X connect 1 1 3 0;
#X connect 4 0 5 0;
#X connect 4 0 6 0;
#X connect 5 0 0 0;
#X connect 5 1 0 1;
#X connect 6 0 0 0;
#X connect 6 0 0 1;
#X connect 7 0 4 0;
#X connect 7 0 1 0;
#X coords 0 457 1 456 250 80 0;
#X restore 329 312 pd random_earcon;
#N canvas 683 126 848 584 partial_earcon 0;
#X obj 203 443 dac~;
#N canvas 1176 243 640 417 frequency 0;
#X floatatom 386 267 5 0 0 0 - - -;
#X floatatom 508 269 5 0 0 0 - - -;
#X floatatom 265 268 5 0 0 0 - - -;
#X obj 34 221 f;
#X obj 265 221 f;
#X obj 386 220 f;
#X obj 508 222 f;
#X obj 265 96 delay 500;
#X obj 386 98 delay 700;
#X obj 508 99 delay 900;
#X obj 34 17 inlet;
#X obj 265 132 bng 15 250 50 0 empty empty empty 17 7 0 10 -262144
-1 -1;
#X obj 386 140 bng 15 250 50 0 empty empty empty 17 7 0 10 -262144
-1 -1;
#X obj 508 138 bng 15 250 50 0 empty empty empty 17 7 0 10 -262144
-1 -1;
#X obj 508 292 s freq3;
#X obj 386 291 s freq2;
#X obj 265 291 s freq1;
#X obj 34 291 s freq0;
#X obj 265 246 * 2;
#X obj 386 245 * 3;
#X obj 508 247 * 4;
#X obj 52 154 r freq-s;
#X connect 0 0 15 0;
#X connect 1 0 14 0;
#X connect 2 0 16 0;
#X connect 3 0 17 0;
#X connect 4 0 18 0;
#X connect 5 0 19 0;
#X connect 6 0 20 0;
#X connect 7 0 11 0;
#X connect 8 0 12 0;
#X connect 9 0 13 0;
#X connect 10 0 3 0;
#X connect 10 0 9 0;
#X connect 10 0 8 0;
#X connect 10 0 7 0;
#X connect 11 0 4 0;
#X connect 12 0 5 0;
#X connect 13 0 6 0;
#X connect 18 0 2 0;
#X connect 19 0 0 0;
#X connect 20 0 1 0;
#X connect 21 0 4 1;
#X connect 21 0 6 1;
#X connect 21 0 3 1;
#X connect 21 0 5 1;
#X restore 61 340 pd frequency;
#X msg 206 286 0;
#N canvas 625 91 598 480 envelope 0;
#X msg 157 97 1 1000 \, 0.5 1000 1000 \, 0 1000 1500;
#X msg 158 175 0.6 1000 \, 0.5 1000 1000 \, 0 1000 1500;
#X obj 178 318 osc~;
#X obj 259 315 osc~;
#X obj 339 312 osc~;
#X obj 72 210 vline~;
#X obj 158 210 vline~;
#X obj 241 208 vline~;
#X obj 321 208 vline~;
#X obj 92 319 osc~;
#X obj 73 344 *~;
#X obj 159 343 *~;
#X obj 241 342 *~;
#X obj 321 339 *~;
#X obj 187 277 r stop;
#X obj 159 420 outlet~;
#X obj 71 64 t b b;
#X obj 71 39 inlet;
#X obj 92 248 r freq0;
#X obj 178 249 r freq1;
#X obj 259 249 r freq2;
#X obj 339 249 r freq3;
#X obj 159 393 *~ 0.3;
#X connect 0 0 5 0;
#X connect 1 0 6 0;
#X connect 1 0 7 0;
#X connect 1 0 8 0;
#X connect 2 0 11 1;
#X connect 3 0 12 1;
#X connect 4 0 13 1;
#X connect 5 0 10 0;
#X connect 6 0 11 0;
#X connect 7 0 12 0;
#X connect 8 0 13 0;
#X connect 9 0 10 1;
#X connect 10 0 22 0;
#X connect 11 0 22 0;
#X connect 12 0 22 0;
#X connect 13 0 22 0;
#X connect 14 0 9 0;
#X connect 14 0 2 0;
#X connect 14 0 3 0;
#X connect 14 0 4 0;
#X connect 16 0 1 0;
#X connect 16 1 0 0;
#X connect 17 0 16 0;
#X connect 18 0 9 0;
#X connect 19 0 2 0;
#X connect 20 0 3 0;
#X connect 21 0 4 0;
#X connect 22 0 15 0;
#X restore 202 348 pd envelope;
#X obj 206 310 s stop;
#X obj 220 374 rev3~ 90 95;
#X obj 206 262 delay 3000;
#X obj 203 403 *~ 0.1;
#X obj 61 198 r earcon-s;
#X connect 2 0 4 0;
#X connect 3 0 5 0;
#X connect 3 0 7 0;
#X connect 5 0 0 0;
#X connect 5 1 0 1;
#X connect 6 0 2 0;
#X connect 7 0 0 0;
#X connect 7 0 0 1;
#X connect 8 0 1 0;
#X connect 8 0 6 0;
#X connect 8 0 3 0;
#X coords 0 584 1 583 250 80 0;
#X restore 189 313 pd partial_earcon;
#X obj 77 59 bng 30 250 50 1 earcon-s earcon-r empty 40 15 0 10 -232576
-1 -1;
#X obj 80 108 hsl 128 15 0 1000 0 1 freq-s freq-r Fundamental_frequency
-2 -8 0 10 -232576 -1 -1 6500 1;
#X obj 79 141 bng 30 250 50 0 random-s random-r empty 40 15 0 10 -204800
-1 -1;
#X obj 82 188 hsl 128 15 0 1000 0 1 randomize-s randomize-r Random_value
-2 -8 0 10 -204800 -1 -1 6500 1;
#X text 114 64 Appuie FORT;
#X text 116 148 FORT!!!!;
#X text 39 28 RECOMPENSE POUR MANU SIONIAC;
