#N canvas 76 25 1239 805 12;
#X obj 315 516 vsl 32 128 0.001 1.5 0 0 empty amp_a A 6 -16 0 32 -261682
-1 -1 0 1;
#X obj 366 516 vsl 32 128 0.001 2 0 0 empty amp_d D 6 -16 0 32 -261682
-1 -1 6347 1;
#X obj 264 659 bng 15 250 50 0 empty trigger empty 17 7 0 10 -262144
-1 -1;
#X floatatom 492 610 5 0 0 0 - - -;
#X obj 495 567 hsl 128 15 0.1 1 0 0 empty lfo LFO_freq -2 -8 0 10 -262130
-1 -1 2469 1;
#X obj 669 777 dac~;
#X obj 694 706 *~;
#X obj 932 288 vsl 32 128 0.001 6 0 0 empty filt_a A 6 -16 0 32 -261682
-1 -1 61 1;
#X obj 979 287 vsl 32 128 0.001 2 0 0 empty filt_d D 6 -16 0 32 -261682
-1 -1 947 1;
#X obj 883 425 bng 15 250 50 0 empty trigger empty 17 7 0 10 -262144
-1 -1;
#X floatatom 735 388 8 0 0 0 - - -;
#X obj 738 373 hsl 128 15 1 10000 0 0 empty freq Frequency -2 -8 0
10 -204786 -1 -1 50 1;
#X obj 758 423 hsl 108 15 0.1 6 0 0 empty res Resonance -2 -8 0 10
-261234 -1 -1 1632 1;
#X obj 1031 421 hsl 128 15 0 10 0 0 empty env_amt Env_amount -2 -8
0 10 -204800 -1 -1 2540 1;
#N canvas 679 202 462 473 filt_envelope 0;
#X obj 121 175 inlet;
#X obj 206 175 inlet;
#X obj 51 231 inlet;
#X obj 152 338 vline~;
#X obj 51 258 bng 15 250 50 0 empty empty empty 17 7 0 10 -262144 -1
-1;
#X obj 152 374 outlet~;
#X obj 318 173 inlet;
#X msg 152 304 1 \, \$4 \$2 \, 1 \$3 \$2;
#X obj 121 201 * 1000;
#X obj 206 200 * 1000;
#X obj 318 198 * 2000;
#X obj 152 273 pack f f f f;
#X text 152 34 Filter Envelope (AD);
#X text 34 209 Trigger:;
#X text 109 154 Attack:;
#X text 203 153 Decay:;
#X text 287 151 Envelope amount:;
#X connect 0 0 8 0;
#X connect 1 0 9 0;
#X connect 2 0 4 0;
#X connect 3 0 5 0;
#X connect 4 0 11 0;
#X connect 6 0 10 0;
#X connect 7 0 3 0;
#X connect 8 0 11 1;
#X connect 9 0 11 2;
#X connect 10 0 11 3;
#X connect 11 0 7 0;
#X restore 896 458 pd filt_envelope;
#N canvas 217 225 342 431 amp_envelope 0;
#X obj 130 136 inlet;
#X obj 196 137 inlet;
#X obj 56 179 inlet;
#X obj 129 290 vline~;
#X obj 56 210 bng 15 250 50 0 empty empty empty 17 7 0 10 -262144 -1
-1;
#X obj 129 326 outlet~;
#X obj 130 166 * 1000;
#X obj 196 165 * 1000;
#X obj 129 225 pack f f f;
#X msg 129 256 0 \, 1 \$2 \, 0 \$3 \$2;
#X text 38 155 Trigger:;
#X text 120 113 Attack:;
#X text 191 113 Decay:;
#X text 89 24 Amplitude Envelope (AD);
#X connect 0 0 6 0;
#X connect 1 0 7 0;
#X connect 2 0 4 0;
#X connect 3 0 5 0;
#X connect 4 0 8 0;
#X connect 6 0 8 1;
#X connect 7 0 8 2;
#X connect 8 0 9 0;
#X connect 9 0 3 0;
#X restore 264 687 pd amp_envelope;
#X floatatom 1028 441 5 0 0 0 - - -;
#X floatatom 979 423 5 0 0 0 - - -;
#X floatatom 932 424 5 0 0 0 - - -;
#X floatatom 366 652 5 0 0 0 - - -;
#X floatatom 315 652 5 0 0 0 - - -;
#X floatatom 755 438 5 0 0 0 - - -;
#X obj 25 476 loadbang;
#X obj 755 604 vsl 64 128 0 1 0 0 empty vol Volume 0 -9 0 10 -232576
-1 -1 6350 1;
#N canvas 0 25 450 278 (subpatch) 0;
#X array /oscillo 1000 float 1;
#A 0 0 0 0 0 0 0 0 0 0 0 0 0 0 0 0 0 0 0 0 0 0 0 0 0 0 0 0 0 0 0 0
0 0 0 0 0 0 0 0 0 0 0 0 0 0 0 0 0 0 0 0 0 0 0 0 0 0 0 0 0 0 0 0 0 0
0 0 0 0 0 0 0 0 0 0 0 0 0 0 0 0 0 0 0 0 0 0 0 0 0 0 0 0 0 0 0 0 0 0
0 0 0 0 0 0 0 0 0 0 0 0 0 0 0 0 0 0 0 0 0 0 0 0 0 0 0 0 0 0 0 0 0 0
0 0 0 0 0 0 0 0 0 0 0 0 0 0 0 0 0 0 0 0 0 0 0 0 0 0 0 0 0 0 0 0 0 0
0 0 0 0 0 0 0 0 0 0 0 0 0 0 0 0 0 0 0 0 0 0 0 0 0 0 0 0 0 0 0 0 0 0
0 0 0 0 0 0 0 0 0 0 0 0 0 0 0 0 0 0 0 0 0 0 0 0 0 0 0 0 0 0 0 0 0 0
0 0 0 0 0 0 0 0 0 0 0 0 0 0 0 0 0 0 0 0 0 0 0 0 0 0 0 0 0 0 0 0 0 0
0 0 0 0 0 0 0 0 0 0 0 0 0 0 0 0 0 0 0 0 0 0 0 0 0 0 0 0 0 0 0 0 0 0
0 0 0 0 0 0 0 0 0 0 0 0 0 0 0 0 0 0 0 0 0 0 0 0 0 0 0 0 0 0 0 0 0 0
0 0 0 0 0 0 0 0 0 0 0 0 0 0 0 0 0 0 0 0 0 0 0 0 0 0 0 0 0 0 0 0 0 0
0 0 0 0 0 0 0 0 0 0 0 0 0 0 0 0 0 0 0 0 0 0 0 0 0 0 0 0 0 0 0 0 0 0
0 0 0 0 0 0 0 0 0 0 0 0 0 0 0 0 0 0 0 0 0 0 0 0 0 0 0 0 0 0 0 0 0 0
0 0 0 0 0 0 0 0 0 0 0 0 0 0 0 0 0 0 0 0 0 0 0 0 0 0 0 0 0 0 0 0 0 0
0 0 0 0 0 0 0 0 0 0 0 0 0 0 0 0 0 0 0 0 0 0 0 0 0 0 0 0 0 0 0 0 0 0
0 0 0 0 0 0 0 0 0 0 0 0 0 0 0 0 0 0 0 0 0 0 0 0 0 0 0 0 0 0 0 0 0 0
0 0 0 0 0 0 0 0 0 0 0 0 0 0 0 0 0 0 0 0 0 0 0 0 0 0 0 0 0 0 0 0 0 0
0 0 0 0 0 0 0 0 0 0 0 0 0 0 0 0 0 0 0 0 0 0 0 0 0 0 0 0 0 0 0 0 0 0
0 0 0 0 0 0 0 0 0 0 0 0 0 0 0 0 0 0 0 0 0 0 0 0 0 0 0 0 0 0 0 0 0 0
0 0 0 0 0 0 0 0 0 0 0 0 0 0 0 0 0 0 0 0 0 0 0 0 0 0 0 0 0 0 0 0 0 0
0 0 0 0 0 0 0 0 0 0 0 0 0 0 0 0 0 0 0 0 0 0 0 0 0 0 0 0 0 0 0 0 0 0
0 0 0 0 0 0 0 0 0 0 0 0 0 0 0 0 0 0 0 0 0 0 0 0 0 0 0 0 0 0 0 0 0 0
0 0 0 0 0 0 0 0 0 0 0 0 0 0 0 0 0 0 0 0 0 0 0 0 0 0 0 0 0 0 0 0 0 0
0 0 0 0 0 0 0 0 0 0 0 0 0 0 0 0 0 0 0 0 0 0 0 0 0 0 0 0 0 0 0 0 0 0
0 0 0 0 0 0 0 0 0 0 0 0 0 0 0 0 0 0 0 0 0 0 0 0 0 0 0 0 0 0 0 0 0 0
0 0 0 0 0 0 0 0 0 0 0 0 0 0 0 0 0 0 0 0 0 0 0 0 0 0 0 0 0 0 0 0 0 0
0 0 0 0 0 0 0 0 0 0 0 0 0 0 0 0 0 0 0 0 0 0 0 0 0 0 0 0 0 0 0 0 0 0
0 0 0 0 0 0 0 0 0 0 0 0 0 0 0 0 0 0 0 0 0 0 0 0 0 0 0 0 0 0 0 0 0 0
0 0 0 0 0 0 0 0 0 0 0 0 0 0 0 0 0 0 0 0 0 0 0 0 0 0 0 0 0 0 0 0 0 0
0 0 0 0 0 0 0 0 0 0 0 0 0 0 0 0 0;
#X coords 0 1 1000 -1 200 140 1 0 0;
#X restore 999 634 graph;
#X obj 860 729 metro 100;
#N canvas 0 25 450 278 (subpatch) 0;
#X array fluctuation 50 float 3;
#A 0 0.24 0.388 0.836 0.676 0.324 0.508 0.2 0.148 0.244 0.468 0.788
0.884 0.176 0.188 0.816 0.708 0.544 0.76 0.792 0.768 0.352 0.288 0.364
0.416 0.36 0.98 0.656 0.808 0.404 0.416 0.744 0.548 0.652 0.148 0.888
0.2 0.592 0.944 0.036 0.032 0.996 0.02 0.284 0.768 0.916 0.264 0.392
0.288 0.672 0.496;
#X coords 0 1 50 0 200 140 1 0 0;
#X restore 26 177 graph;
#N canvas 0 25 450 278 (subpatch) 0;
#X array note_seq 200 float 1;
#A 0 52 44 25 62 37 31 70 61 42 54 46 53 39 46 43 69 46 66 52 65 26
35 56 68 63 29 40 53 35 62 64 66 67 50 64 24 36 48 50 27 43 63 24 48
58 51 43 47 54 55 31 46 43 69 37 55 64 30 48 49 70 63 54 37 65 43 57
36 39 30 31 52 52 25 35 48 30 71 30 69 42 51 30 71 43 34 25 39 56 26
33 61 65 69 71 60 46 47 60 61 52 69 37 68 59 38 69 37 43 35 66 49 24
71 41 41 45 50 67 70 66 46 50 48 52 66 29 54 46 52 42 71 25 67 44 53
67 59 58 47 59 49 45 24 65 36 60 47 71 42 69 52 26 68 56 65 63 40 38
32 58 51 71 36 50 71 28 32 32 43 33 61 38 28 50 32 34 56 32 37 46 34
28 35 57 27 56 71 36 27 60 54 24 37 68 25 28 31 60 32;
#X coords 0 127 199 0 200 140 1 0 0;
#X restore 25 333 graph;
#X obj 28 31 tgl 32 0 empty rnd Rnd 0 -10 0 18 -204786 -1 -1 1 1;
#X obj 261 80 tgl 15 0 empty seq_r Note_sequencer 17 7 0 10 -262130
-1 -1 0 1;
#X obj 396 87 tgl 15 0 empty fluctuator Tempo_fluctuation 17 7 0 10
-262130 -1 -1 1 1;
#N canvas 492 271 800 414 tempo_randomizer 0;
#X obj 41 174 metro 20;
#X floatatom 41 270 5 0 0 0 - - -;
#X floatatom 178 281 5 0 0 0 - - -;
#X obj 178 193 f;
#X obj 214 192 + 1;
#X obj 178 246 mod 50;
#X obj 41 110 inlet;
#X obj 41 137 tgl 15 0 empty empty empty 17 7 0 10 -262144 -1 -1 1
1;
#X obj 278 112 inlet;
#X obj 278 146 expr $i1;
#X floatatom 278 185 5 0 0 0 - - -;
#X obj 41 205 random 1000;
#X obj 41 236 / 1000;
#X obj 115 165 / 4;
#X obj 278 217 / 4;
#X obj 41 321 tabwrite fluctuation;
#X text 373 162 Generating random Tempo fluctuations;
#X text 372 213 Scaled to (my) taste.;
#X text 371 232 Can be adjusted with the 'Fluctuation_amount' slider.
;
#X text 37 80 Toggle On/Off:;
#X text 254 84 Fluctuation amount:;
#X connect 0 0 3 0;
#X connect 0 0 11 0;
#X connect 1 0 15 0;
#X connect 2 0 15 1;
#X connect 3 0 4 0;
#X connect 3 0 5 0;
#X connect 4 0 3 1;
#X connect 5 0 2 0;
#X connect 6 0 7 0;
#X connect 7 0 0 0;
#X connect 8 0 9 0;
#X connect 9 0 10 0;
#X connect 9 0 13 0;
#X connect 9 0 14 0;
#X connect 11 0 12 0;
#X connect 12 0 1 0;
#X connect 13 0 11 1;
#X connect 14 0 12 1;
#X restore 28 140 pd tempo_randomizer;
#N canvas 431 337 682 420 note_randomizer 0;
#X obj 57 104 inlet;
#X obj 57 163 metro 20;
#X floatatom 57 261 5 0 0 0 - - -;
#X floatatom 173 249 5 0 0 0 - - -;
#X obj 173 182 f;
#X obj 209 181 + 1;
#X obj 173 214 mod 200;
#X obj 57 196 random 48;
#X obj 57 227 + 24;
#X obj 57 135 tgl 15 0 empty empty empty 17 7 0 10 -262144 -1 -1 1
1;
#X obj 188 106 inlet;
#X obj 188 136 expr $i1;
#X obj 57 299 tabwrite note_seq;
#X text 303 157 Generating random MIDI notes;
#X text 302 196 Lowest note is C1;
#X text 300 251 The 'Note_range' slider adjusts the range;
#X text 301 229 Will by default generate notes between 4 octaves;
#X text 33 71 Toggle On/Off:;
#X text 183 73 Note range:;
#X connect 0 0 9 0;
#X connect 1 0 4 0;
#X connect 1 0 7 0;
#X connect 2 0 12 0;
#X connect 3 0 12 1;
#X connect 4 0 5 0;
#X connect 4 0 6 0;
#X connect 5 0 4 1;
#X connect 6 0 3 0;
#X connect 7 0 8 0;
#X connect 8 0 2 0;
#X connect 9 0 1 0;
#X connect 10 0 11 0;
#X connect 11 0 7 1;
#X restore 34 108 pd note_randomizer;
#N canvas 734 164 504 566 note_generator 0;
#X obj 71 301 metro 100;
#X obj 71 332 f;
#X obj 112 329 + 1;
#X floatatom 71 404 5 0 0 0 - - -;
#X obj 71 372 mod 200;
#X obj 71 461 mtof;
#X obj 71 493 outlet;
#X floatatom 250 422 5 0 0 0 - - -;
#X obj 250 362 f;
#X obj 250 331 metro 50;
#X obj 71 236 inlet;
#X floatatom 131 266 5 0 0 0 - - -;
#X obj 250 274 inlet;
#X obj 71 273 tgl 15 0 empty empty empty 17 7 0 10 -262144 -1 -1 0
1;
#X obj 250 303 tgl 15 0 empty empty empty 17 7 0 10 -262144 -1 -1 1
1;
#X obj 250 484 * 200;
#X obj 393 464 inlet;
#X obj 250 450 + 1;
#X obj 176 319 bng 15 250 50 0 empty empty empty 17 7 0 10 -262144
-1 -1;
#X obj 250 393 tabread fluctuation;
#X obj 71 434 tabread note_seq;
#X text 74 24 Note generator;
#X text 72 67 Triggers note in a tempo set by the 'Speed' slider.;
#X text 68 126 'Fluctuation_amount' slider add randomness to tempo.
;
#X text 71 148 Looks up random numbers from 'fluctuation' array.;
#X text 249 249 Fluctuation On/Off:;
#X text 392 440 Speed:;
#X text 70 213 Sequencer On/Off:;
#X text 71 88 Looks up random note numbers from 'note_seq' array.;
#X connect 0 0 1 0;
#X connect 0 0 18 0;
#X connect 1 0 2 0;
#X connect 1 0 4 0;
#X connect 2 0 1 1;
#X connect 3 0 20 0;
#X connect 4 0 3 0;
#X connect 5 0 6 0;
#X connect 7 0 17 0;
#X connect 8 0 19 0;
#X connect 9 0 8 0;
#X connect 10 0 13 0;
#X connect 11 0 0 1;
#X connect 12 0 14 0;
#X connect 13 0 0 0;
#X connect 14 0 9 0;
#X connect 15 0 11 0;
#X connect 16 0 15 1;
#X connect 17 0 15 0;
#X connect 18 0 15 0;
#X connect 19 0 7 0;
#X connect 20 0 5 0;
#X restore 261 102 pd note_generator;
#X obj 380 61 hsl 128 15 3000 40 1 0 empty speed Speed -2 -8 0 10 -261234
-1 -1 4734 1;
#X text 259 43 Note generator:;
#X obj 397 125 hsl 128 15 1 10000 1 0 empty fluct Fluctuation_amount
-2 -8 0 10 -203904 -1 -1 9525 1;
#X obj 492 628 osc~;
#X obj 356 303 *~;
#X obj 411 288 hsl 84 15 0 10 0 0 empty vibrato amount -2 -8 0 10 -204786
-1 -1 830 1;
#N canvas 0 22 450 278 (subpatch) 0;
#X array \$0-FM_seq 16 float 3;
#A 0 2000 6500 7785.72 7714.29 714.28 9000.25 2000 9428.58 9857.16
8785.72 5357.15 2000 928.566 1071.42 2785.71 4714.29;
#X coords 0 12000 16 1 234 100 1 0 0;
#X restore 589 173 graph;
#X obj 584 76 tgl 15 0 empty counter empty 17 7 0 10 -261682 -1 -1
1 1;
#X floatatom 672 76 5 0 0 0 - - -;
#X obj 584 123 hradio 15 1 0 16 empty empty empty 0 -8 0 10 -262130
-260097 -1 7;
#N canvas 430 232 328 370 counter16 0;
#X obj 110 143 tgl 15 0 empty empty empty 17 7 0 10 -262144 -1 -1 1
1;
#X floatatom 110 246 5 0 0 0 - - -;
#X obj 110 194 f;
#X obj 151 194 + 1;
#X obj 110 168 metro 100;
#X floatatom 170 141 5 0 0 0 - - -;
#X obj 110 220 mod 16;
#X obj 110 115 inlet;
#X obj 170 115 inlet;
#X obj 110 272 outlet;
#X text 67 61 Counter for 16-step Sequencer:;
#X connect 0 0 4 0;
#X connect 1 0 9 0;
#X connect 2 0 3 0;
#X connect 2 0 6 0;
#X connect 3 0 2 1;
#X connect 4 0 2 0;
#X connect 5 0 4 1;
#X connect 6 0 1 0;
#X connect 7 0 0 0;
#X connect 8 0 5 0;
#X restore 584 92 pd counter16;
#X obj 338 401 *~ 2;
#X obj 338 420 -~ 1;
#X obj 602 443 hsl 64 15 0 1 0 0 empty fm FM_amount -2 -8 0 10 -203904
-1 -1 1890 1;
#X obj 470 423 hsl 64 15 0 1 0 0 empty am AM_amount -2 -8 0 10 -203904
-1 -1 0 1;
#X obj 52 93 hsl 110 15 12 103 0 0 empty range Note_range -2 -8 0 10
-261682 -1 -1 4312 1;
#X obj 261 140 s trig;
#X obj 310 303 r trig;
#X obj 883 400 r trig;
#X obj 264 634 r trig;
#X obj 492 647 s~ lfo;
#X obj 356 284 r~ lfo;
#X obj 451 387 r~ lfo;
#N canvas 920 166 439 429 AM 0;
#X obj 65 233 inlet~;
#X obj 154 145 inlet~;
#X obj 267 213 inlet;
#X obj 136 312 *~;
#X obj 180 312 *~;
#X obj 180 360 outlet~;
#X obj 154 232 *~ 1;
#X obj 154 173 +~ 0.9;
#X obj 267 264 + 1;
#X obj 267 293 * -1;
#X text 115 30 Amplitude Modulation;
#X text 53 209 Carrier:;
#X text 152 123 Modulator:;
#X text 113 68 With option for setting the amount.;
#X text 264 187 Amount: (crossfade);
#X connect 0 0 3 0;
#X connect 0 0 4 0;
#X connect 1 0 7 0;
#X connect 2 0 6 1;
#X connect 2 0 8 0;
#X connect 3 0 5 0;
#X connect 4 0 5 0;
#X connect 6 0 3 1;
#X connect 7 0 6 0;
#X connect 8 0 9 0;
#X connect 9 0 4 1;
#X restore 435 439 pd AM;
#N canvas 0 25 450 426 FM 0;
#X obj 57 229 inlet~;
#X obj 280 209 inlet;
#X obj 156 182 phasor~;
#X obj 138 302 *~;
#X obj 156 228 *~ 1;
#X obj 280 284 * -1;
#X obj 184 303 *~;
#X obj 280 257 + 1;
#X obj 156 152 inlet;
#X obj 184 350 outlet~;
#X text 48 205 Carrier:;
#X text 156 129 Modulator:;
#X text 97 34 Frequency Modulation;
#X text 278 182 Amount: (crossfade);
#X text 97 78 With option for setting the amount.;
#X connect 0 0 3 0;
#X connect 0 0 6 0;
#X connect 1 0 4 1;
#X connect 1 0 7 0;
#X connect 2 0 4 0;
#X connect 3 0 9 0;
#X connect 4 0 3 1;
#X connect 5 0 6 1;
#X connect 6 0 9 0;
#X connect 7 0 5 0;
#X connect 8 0 2 0;
#X restore 567 458 pd FM;
#N canvas 57 187 450 447 LoPass 0;
#X obj 74 247 inlet~;
#X obj 221 160 inlet;
#X obj 182 266 vcf~ 1;
#X obj 182 328 outlet~;
#X obj 153 210 sig~;
#X obj 201 230 +~;
#X obj 153 160 inlet;
#X obj 294 212 inlet~;
#X text 67 224 Signal:;
#X text 141 132 Cutoff:;
#X text 219 133 Resonance:;
#X text 292 189 Envelope amount:;
#X text 145 42 1-pole LoPass filter;
#X connect 0 0 2 0;
#X connect 1 0 2 2;
#X connect 2 0 3 0;
#X connect 4 0 5 0;
#X connect 5 0 2 1;
#X connect 6 0 4 0;
#X connect 7 0 5 1;
#X restore 715 477 pd LoPass;
#X obj 584 138 array get \$0-FM_seq;
#X text 74 44 Off: Lock the patterns;
#X text 347 264 Vibrato:;
#X text 449 366 AM (Tremolo):;
#X text 598 411 FM:;
#X text 139 536 Envelope generator (AD);
#X text 138 557 Controlling amplitude;
#X text 1030 288 Envelope generator (AD);
#X text 1029 309 Controlling LoPass filter;
#X text 733 339 LoPass filter:;
#X text 257 177 - oscillator;
#X text 581 15 Step sequencer for FM modulator:;
#X text 753 564 Master volume:;
#X text 256 159 Sends note/trigger to:;
#X text 73 29 On: Randomize patterns;
#X text 581 58 not affected by Tempo Fluctuation.;
#X text 581 42 Shares tempo with Note generator \, except;
#X text 309 240 Sawtooth Oscillator:;
#X text 902 11 ########################################;
#X text 901 45 ########################################;
#X text 966 66 by Kristian Wentzel;
#X text 866 99 Inspired by classic analog monophonic subtractive;
#X text 865 117 synthesizers. Oscillator goes through AM and FM on
;
#X text 867 135 it's way to the LoPass filter. Randomly generated;
#X text 865 155 notes and tempo fluctuations with possibility to;
#X text 867 174 lock patterns. Step sequencer controlling FM.;
#X text 902 28 ## Generative Subtractive Synthesizer ##;
#X text 867 193 AD envelopes controlling Filter and Amp. LFO;
#X text 257 195 - amp/filter envelope;
#X text 491 530 LFO for vibrato/AM:;
#X text 866 214 controlling vibrato (Osc freq) and tremolo (AM).;
#X text 587 277 (Plottable FM sequencer.);
#X obj 898 516 cnv 15 100 80 empty empty empty 20 12 0 14 -260097 -66577
0;
#N canvas 270 134 908 629 keyboard 0;
#X obj 384 295 bng 48 250 50 0 empty keyC_r C 16 24 0 24 -262130 -260097
-99865;
#X obj 436 295 bng 48 250 50 0 empty keyD_r D 16 24 0 24 -262130 -260097
-99865;
#X obj 488 295 bng 48 250 50 0 empty keyE_r E 16 24 0 24 -262130 -260097
-99865;
#X obj 540 295 bng 48 250 50 0 empty keyF_r F 16 24 0 24 -262130 -260097
-99865;
#X obj 592 295 bng 48 250 50 0 empty keyG_r G 16 24 0 24 -262130 -260097
-99865;
#X obj 644 295 bng 48 250 50 0 empty keyA_r A 16 24 0 24 -262130 -260097
-99865;
#X obj 696 295 bng 48 250 50 0 empty keyB_r B 16 24 0 24 -262130 -260097
-99865;
#X obj 748 295 bng 48 250 50 0 empty keyC2_r C 16 24 0 24 -262130 -260097
-99865;
#X obj 412 243 bng 48 250 50 0 empty keyDb_r Db 12 24 0 24 -83269 -260097
-262130;
#X obj 464 243 bng 48 250 50 0 empty keyEb_r Eb 12 24 0 24 -83269 -260097
-262130;
#X obj 566 243 bng 48 250 50 0 empty keyGb_r Gb 12 24 0 24 -83269 -260097
-262130;
#X obj 618 243 bng 48 250 50 0 empty keyAb_r Ab 12 24 0 24 -83269 -260097
-262130;
#X obj 670 243 bng 48 250 50 0 empty keyBb_r Bb 12 24 0 24 -83269 -260097
-262130;
#X obj 562 564 mtof;
#X msg 644 347 69;
#X msg 696 347 71;
#X msg 748 347 72;
#X floatatom 562 468 5 0 0 0 - - -;
#X msg 670 221 70;
#X msg 618 220 68;
#X msg 566 220 66;
#X msg 592 348 67;
#X msg 540 347 65;
#X msg 488 347 64;
#X msg 436 347 62;
#X msg 384 347 60;
#X msg 412 220 61;
#X msg 464 220 63;
#X obj 562 588 s trig;
#X obj 562 516 +;
#X floatatom 562 541 5 0 0 0 - - -;
#X obj 98 283 bng 48 250 50 0 empty empty -1 10 24 0 24 -232576 -159808
-45076;
#X obj 175 283 bng 48 250 50 0 empty empty +1 10 24 0 24 -232576 -159808
-45076;
#X floatatom 140 501 5 0 0 0 - - -;
#X obj 98 378 f;
#X obj 175 378 f;
#X obj 140 479 f;
#X obj 175 405 + 1;
#X obj 98 405 - 1;
#X obj 196 529 * 12;
#X obj 98 431 max -3;
#X obj 175 431 min 3;
#X obj 98 338 hradio 18 1 0 7 empty oct_display empty 0 -8 0 10 -232576
-45076 -1 3;
#X obj 86 528 + 3;
#X obj 196 552 s oct_offset;
#X obj 86 552 s oct_display;
#X obj 580 491 r oct_offset;
#X obj 46 478 tgl 15 0 empty load empty 17 7 0 10 -262144 -1 -1 1 1
;
#X obj 46 499 metro 100;
#X obj 405 18 receive fromGUI;
#X obj 405 42 route list;
#X obj 405 66 route /Ckey /Dbkey /Dkey /Ebkey /Ekey /Fkey /Gbkey /Gkey
/Abkey /Akey /Bbkey /Bkey /C2key;
#X obj 362 160 select 1;
#X obj 362 184 bng 15 250 50 0 keyC_r empty empty 17 7 0 10 -262144
-1 -1;
#X obj 407 118 select 1;
#X obj 407 142 bng 15 250 50 0 keyDb_r empty empty 17 7 0 10 -262144
-1 -1;
#X obj 424 160 select 1;
#X obj 424 184 bng 15 250 50 0 keyD_r empty empty 17 7 0 10 -262144
-1 -1;
#X obj 469 118 select 1;
#X obj 469 142 bng 15 250 50 0 keyEb_r empty empty 17 7 0 10 -262144
-1 -1;
#X obj 486 160 select 1;
#X obj 486 184 bng 15 250 50 0 keyE_r empty empty 17 7 0 10 -262144
-1 -1;
#X obj 548 160 select 1;
#X obj 548 184 bng 15 250 50 0 keyF_r empty empty 17 7 0 10 -262144
-1 -1;
#X obj 593 118 select 1;
#X obj 593 142 bng 15 250 50 0 keyGb_r empty empty 17 7 0 10 -262144
-1 -1;
#X obj 610 160 select 1;
#X obj 610 184 bng 15 250 50 0 keyG_r empty empty 17 7 0 10 -262144
-1 -1;
#X obj 672 160 select 1;
#X obj 672 184 bng 15 250 50 0 keyA_r empty empty 17 7 0 10 -262144
-1 -1;
#X obj 734 160 select 1;
#X obj 734 184 bng 15 250 50 0 keyB_r empty empty 17 7 0 10 -262144
-1 -1;
#X obj 796 160 select 1;
#X obj 796 184 bng 15 250 50 0 keyC2_r empty empty 17 7 0 10 -262144
-1 -1;
#X obj 655 118 select 1;
#X obj 655 142 bng 15 250 50 0 keyAb_r empty empty 17 7 0 10 -262144
-1 -1;
#X obj 717 118 select 1;
#X obj 717 142 bng 15 250 50 0 keyBb_r empty empty 17 7 0 10 -262144
-1 -1;
#X obj 98 183 receive fromGUI;
#X obj 98 207 route list;
#X obj 98 256 select 1;
#X obj 175 256 select 1;
#X obj 98 231 route /octDwn /octUp;
#X text 99 147 Octave Down/Up:;
#X text 562 25 1 octave keyboard:;
#X obj 191 482 r pitchch;
#X connect 0 0 25 0;
#X connect 1 0 24 0;
#X connect 2 0 23 0;
#X connect 3 0 22 0;
#X connect 4 0 21 0;
#X connect 5 0 14 0;
#X connect 6 0 15 0;
#X connect 7 0 16 0;
#X connect 8 0 26 0;
#X connect 9 0 27 0;
#X connect 10 0 20 0;
#X connect 11 0 19 0;
#X connect 12 0 18 0;
#X connect 13 0 28 0;
#X connect 14 0 17 0;
#X connect 15 0 17 0;
#X connect 16 0 17 0;
#X connect 17 0 29 0;
#X connect 18 0 17 0;
#X connect 19 0 17 0;
#X connect 20 0 17 0;
#X connect 21 0 17 0;
#X connect 22 0 17 0;
#X connect 23 0 17 0;
#X connect 24 0 17 0;
#X connect 25 0 17 0;
#X connect 26 0 17 0;
#X connect 27 0 17 0;
#X connect 29 0 30 0;
#X connect 30 0 13 0;
#X connect 31 0 34 0;
#X connect 32 0 35 0;
#X connect 33 0 39 0;
#X connect 33 0 43 0;
#X connect 34 0 38 0;
#X connect 35 0 37 0;
#X connect 36 0 33 0;
#X connect 37 0 41 0;
#X connect 38 0 40 0;
#X connect 39 0 44 0;
#X connect 40 0 36 0;
#X connect 40 0 34 1;
#X connect 40 0 35 1;
#X connect 41 0 36 0;
#X connect 41 0 35 1;
#X connect 41 0 34 1;
#X connect 43 0 45 0;
#X connect 46 0 29 1;
#X connect 47 0 48 0;
#X connect 48 0 43 0;
#X connect 49 0 50 0;
#X connect 50 0 51 0;
#X connect 51 0 52 0;
#X connect 51 1 54 0;
#X connect 51 2 56 0;
#X connect 51 3 58 0;
#X connect 51 4 60 0;
#X connect 51 5 62 0;
#X connect 51 6 64 0;
#X connect 51 7 66 0;
#X connect 51 8 74 0;
#X connect 51 9 68 0;
#X connect 51 10 76 0;
#X connect 51 11 70 0;
#X connect 51 12 72 0;
#X connect 52 0 53 0;
#X connect 54 0 55 0;
#X connect 56 0 57 0;
#X connect 58 0 59 0;
#X connect 60 0 61 0;
#X connect 62 0 63 0;
#X connect 64 0 65 0;
#X connect 66 0 67 0;
#X connect 68 0 69 0;
#X connect 70 0 71 0;
#X connect 72 0 73 0;
#X connect 74 0 75 0;
#X connect 76 0 77 0;
#X connect 78 0 79 0;
#X connect 79 0 82 0;
#X connect 80 0 31 0;
#X connect 81 0 32 0;
#X connect 82 0 80 0;
#X connect 82 1 81 0;
#X connect 85 0 33 0;
#X restore 908 524 pd keyboard;
#X obj 860 754 tabwrite~ /oscillo;
#X obj 492 587 * 22;
#X obj 694 735 *~ 0.3;
#X obj 860 698 loadbang;
#X msg 25 496 \; pd dsp 1 \; freq 40 \; res 1 \; env_amt 2 \; amp_a
0.001 \; amp_d 1 \; filt_a 0.03 \; filt_d 0.15 \; load bang \; vol
0.5 \; speed 600 \; fluct 1000 \; lfo 0.275 \; vibrato 1 \; fm 0.3
\; am 0 \; range 48 \; seq_r 0 \; oct_display 3 \; rnd 1;
#N canvas 830 100 531 418 toGUI 0;
#X obj 50 302 s toGUI;
#X obj 153 286 metro 50;
#X obj 153 334 s toGUI;
#X obj 153 255 loadbang;
#X obj 50 63 r load;
#X obj 326 332 s toGUI;
#X obj 326 271 r load;
#X text 325 245 Init Filt/Res X/Y:;
#X text 49 36 Init settings:;
#X text 152 225 Send to oscilloscope;
#X obj 152 36 loadbang;
#X obj 152 60 delay 100;
#X msg 50 100 list /modWheel 0.1 \, list /Vol 0.5 \, list /filtA 0.02
\, list /filtD 0.075 \, list /envAmt 0.2728 \, list /ampA 0.001 \,
list /ampD 0.5 \, list /lfo 0.275 \, list /fm 0.3 \, list /speed 65
\, list /range 36 \, list /seq 0 \, list /rnd 1;
#X msg 326 300 list /lpFilt 0.004 0.1568;
#X msg 153 310 list /oscillo refresh;
#X connect 1 0 14 0;
#X connect 3 0 1 0;
#X connect 4 0 12 0;
#X connect 6 0 13 0;
#X connect 10 0 11 0;
#X connect 11 0 12 0;
#X connect 12 0 0 0;
#X connect 13 0 5 0;
#X connect 14 0 2 0;
#X restore 908 547 pd toGUI;
#N canvas 55 125 1208 438 fromGUI 0;
#X obj 24 76 receive fromGUI;
#X obj 24 106 route list;
#X obj 24 198 s seq_r;
#X obj 278 178 s am;
#X obj 329 213 s fm;
#X obj 380 257 * 10;
#X obj 380 281 s vibrato;
#X obj 533 103 s amp_d;
#X obj 176 106 s range;
#X obj 227 327 s speed;
#X obj 533 79 * 2;
#X obj 74 168 s lfo;
#X obj 635 196 unpack f f;
#X floatatom 635 229 5 0 0 0 - - -;
#X floatatom 702 237 5 0 0 0 - - -;
#X obj 635 285 s freq;
#X obj 702 313 s res;
#X obj 482 258 s amp_a;
#X obj 482 232 * 1.5;
#X obj 635 256 * 10000;
#X obj 584 328 s env_amt;
#X obj 584 259 * 11;
#X obj 584 283 - 1;
#X obj 584 307 max 0;
#X obj 431 208 s lfo;
#X obj 431 184 * 22;
#X obj 702 288 * 6;
#X obj 702 261 + 0.01;
#X obj 227 236 abs;
#X obj 227 212 - 128;
#X floatatom 288 329 10 0 0 0 - - -;
#X obj 288 305 log;
#X obj 227 286 - 30;
#X obj 227 262 * 10;
#X obj 176 82 + 12;
#X obj 737 42 * 2;
#X obj 684 73 * 1.5;
#X obj 684 99 s filt_a;
#X obj 737 66 s filt_d;
#X obj 788 194 s rnd;
#X obj 125 228 select 1;
#X obj 125 255 s load;
#X text 24 39 Receive from GUI:;
#X obj 839 252 s vibrato;
#X obj 839 227 * 10;
#X obj 890 182 s vol;
#X obj 144 414 receive fromSystem;
#X obj 144 452 route list;
#X obj 144 516 unpack f f, f 12;
#X obj 144 487 route /tilts;
#X obj 144 542 + 1;
#X obj 144 567 / 2;
#X obj 144 711 s speed;
#X obj 144 591 * 2960;
#X obj 144 615 + 40;
#X obj 225 684 s pitchch;
#X obj 225 564 i;
#X floatatom 225 589 5 0 0 0 - - -;
#X obj 225 540 * -3;
#X obj 148 652 bng 15 250 50 0 empty stiltbng empty 17 7 0 10 -262144
-1 -1;
#X obj 144 687 spigot;
#X obj 183 667 tgl 15 0 empty empty empty 17 7 0 10 -262144 -1 -1 0
1;
#X obj 941 161 bng 15 250 50 0 empty empty empty 17 7 0 10 -262144
-1 -1;
#X obj 230 622 bng 15 250 50 0 empty ptiltbng empty 17 7 0 10 -262144
-1 -1;
#X obj 225 658 spigot;
#X obj 264 637 tgl 15 0 empty empty empty 17 7 0 10 -262144 -1 -1 0
1;
#X obj 941 181 s ptiltbng;
#X obj 24 138 route /seq /lfo /load /range /speed /am /fm /vibrato
/lfo /ampA /ampD /envAmt /lpFilt /filtA /filtD /rnd /modWheel /Vol
/ptilttgl /stilttgl, f 146;
#X obj 993 212 bng 15 250 50 0 empty empty empty 17 7 0 10 -262144
-1 -1;
#X obj 993 233 s stiltbng;
#X text 24 583 Up and down (landscaped device), f 16;
#X text 268 589 Left and right (landscaped device), f 23;
#X text 13 487 TILTING CONTROLS;
#X connect 0 0 1 0;
#X connect 1 0 67 0;
#X connect 5 0 6 0;
#X connect 10 0 7 0;
#X connect 12 0 13 0;
#X connect 12 1 14 0;
#X connect 13 0 19 0;
#X connect 14 0 27 0;
#X connect 18 0 17 0;
#X connect 19 0 15 0;
#X connect 21 0 22 0;
#X connect 22 0 23 0;
#X connect 23 0 20 0;
#X connect 25 0 24 0;
#X connect 26 0 16 0;
#X connect 27 0 26 0;
#X connect 28 0 33 0;
#X connect 29 0 28 0;
#X connect 31 0 30 0;
#X connect 32 0 9 0;
#X connect 32 0 31 0;
#X connect 33 0 32 0;
#X connect 34 0 8 0;
#X connect 35 0 38 0;
#X connect 36 0 37 0;
#X connect 40 0 41 0;
#X connect 44 0 43 0;
#X connect 46 0 47 0;
#X connect 47 0 49 0;
#X connect 48 0 50 0;
#X connect 48 1 58 0;
#X connect 49 0 48 0;
#X connect 50 0 51 0;
#X connect 51 0 53 0;
#X connect 53 0 54 0;
#X connect 54 0 60 0;
#X connect 56 0 57 0;
#X connect 57 0 64 0;
#X connect 58 0 56 0;
#X connect 59 0 60 0;
#X connect 59 0 61 0;
#X connect 60 0 52 0;
#X connect 61 0 60 1;
#X connect 62 0 66 0;
#X connect 63 0 64 0;
#X connect 63 0 65 0;
#X connect 64 0 55 0;
#X connect 65 0 64 1;
#X connect 67 0 2 0;
#X connect 67 1 11 0;
#X connect 67 2 40 0;
#X connect 67 3 34 0;
#X connect 67 4 29 0;
#X connect 67 5 3 0;
#X connect 67 6 4 0;
#X connect 67 7 5 0;
#X connect 67 8 25 0;
#X connect 67 9 18 0;
#X connect 67 10 10 0;
#X connect 67 11 21 0;
#X connect 67 12 12 0;
#X connect 67 13 36 0;
#X connect 67 14 35 0;
#X connect 67 15 39 0;
#X connect 67 16 44 0;
#X connect 67 17 45 0;
#X connect 67 18 62 0;
#X connect 67 19 68 0;
#X connect 68 0 69 0;
#X restore 908 570 pd fromGUI;
#X obj 149 631 loadbang;
#X msg 149 651 \; fluctuator 1 \; counter 1 \;;
#X obj 324 353 cnv 15 100 30 empty empty empty 20 12 0 14 -257985 -66577
0;
#X obj 338 382 phasor~;
#X obj 338 336 +~;
#N canvas 364 99 341 511 p-wheel 0;
#X obj 37 443 vsl 15 128 -2 2 0 0 empty empty empty 0 -9 0 10 -262144
-1 -1 6350 1;
#X floatatom 37 414 5 0 0 0 - - -;
#X obj 158 370 vline~;
#X obj 37 388 snapshot~;
#X obj 37 336 tgl 15 0 empty empty empty 17 7 0 10 -262144 -1 -1 1
1;
#X obj 37 359 metro 50;
#X obj 37 310 loadbang;
#X obj 158 243 select 0;
#X obj 159 52 receive fromGUI;
#X obj 159 76 route list;
#X obj 93 190 select 1;
#X obj 231 192 select 1;
#X obj 159 100 route /pitchU /pitchD;
#X obj 103 443 ftom~;
#X obj 103 417 inlet~;
#X obj 140 480 +~;
#X obj 140 504 mtof~;
#X obj 140 531 outlet~;
#X msg 93 242 4 300;
#X msg 231 243 -4 300;
#X msg 158 284 0 100;
#X connect 1 0 0 0;
#X connect 2 0 3 0;
#X connect 2 0 15 1;
#X connect 3 0 1 0;
#X connect 4 0 5 0;
#X connect 5 0 3 0;
#X connect 6 0 4 0;
#X connect 7 0 20 0;
#X connect 8 0 9 0;
#X connect 9 0 12 0;
#X connect 10 0 18 0;
#X connect 11 0 19 0;
#X connect 12 0 10 0;
#X connect 12 0 7 0;
#X connect 12 1 7 0;
#X connect 12 1 11 0;
#X connect 13 0 15 0;
#X connect 14 0 13 0;
#X connect 15 0 16 0;
#X connect 16 0 17 0;
#X connect 18 0 2 0;
#X connect 19 0 2 0;
#X connect 20 0 2 0;
#X restore 338 359 pd p-wheel;
#X connect 0 0 20 0;
#X connect 1 0 19 0;
#X connect 2 0 15 0;
#X connect 3 0 37 0;
#X connect 4 0 95 0;
#X connect 6 0 96 0;
#X connect 7 0 18 0;
#X connect 8 0 17 0;
#X connect 9 0 14 0;
#X connect 10 0 59 1;
#X connect 11 0 10 0;
#X connect 12 0 21 0;
#X connect 13 0 16 0;
#X connect 14 0 59 3;
#X connect 15 0 6 0;
#X connect 16 0 14 3;
#X connect 17 0 14 2;
#X connect 18 0 14 1;
#X connect 19 0 15 2;
#X connect 20 0 15 1;
#X connect 21 0 59 2;
#X connect 22 0 98 0;
#X connect 23 0 96 1;
#X connect 25 0 94 0;
#X connect 28 0 32 0;
#X connect 28 0 31 0;
#X connect 29 0 33 0;
#X connect 30 0 33 1;
#X connect 33 0 50 0;
#X connect 34 0 33 2;
#X connect 34 0 42 0;
#X connect 36 0 31 1;
#X connect 37 0 54 0;
#X connect 38 0 105 1;
#X connect 39 0 38 1;
#X connect 41 0 44 0;
#X connect 42 0 44 1;
#X connect 43 0 60 0;
#X connect 44 0 43 0;
#X connect 45 0 46 0;
#X connect 46 0 57 0;
#X connect 47 0 58 2;
#X connect 48 0 57 2;
#X connect 49 0 32 1;
#X connect 51 0 105 0;
#X connect 52 0 9 0;
#X connect 53 0 2 0;
#X connect 55 0 38 0;
#X connect 56 0 57 1;
#X connect 57 0 58 0;
#X connect 58 0 59 0;
#X connect 59 0 6 1;
#X connect 60 0 58 1;
#X connect 95 0 3 0;
#X connect 96 0 5 0;
#X connect 96 0 5 1;
#X connect 96 0 94 0;
#X connect 97 0 25 0;
#X connect 101 0 102 0;
#X connect 104 0 45 0;
#X connect 105 0 106 0;
#X connect 106 0 104 0;
