#N canvas 138 140 926 571 12;
#X obj 31 283 vline~;
#X msg 31 251 \$1 \, \$2 \$3;
#X obj 31 228 pack f f f;
#X obj 82 155 * 44.1;
#X obj 32 126 t f f;
#X obj 64 180 +;
#X obj 408 180 / 1;
#X obj 408 125 t b f;
#X floatatom 219 100 5 0 0 0 - - -;
#X floatatom 408 98 5 0 0 0 - - -;
#X text 104 252 Start \, end duration;
#X obj 32 74 inlet;
#X obj 32 480 outlet~;
#X floatatom 32 100 10 0 0 0 - - -;
#X text 258 101 Duration (ms);
#X text 448 98 Speed (original speed = 1);
#X obj 219 74 r grainduration;
#X obj 408 72 r grainspeed;
#X text 436 180 Get current grain duration;
#X text 450 193 according to grain speed;
#X text 147 169 in number of samples;
#X text 80 283 Grain linear ramp;
#X text 30 11 GRAIN ABSTRACTION;
#X text 30 54 Grain start position;
#X text 219 53 Grain current duration;
#X text 407 53 Grain current speed;
#X text 133 155 Get grain end position;
#X obj 407 314 *~ 2048;
#X text 468 315 normalize the playback rate with the size of the window
;
#X obj 31 430 *~;
#X obj 32 346 tabread4~ grainabstraction-\$2;
#X obj 408 282 phasor~;
#X obj 407 338 +~ 1;
#N canvas 217 109 286 219 hanning 0;
#X obj 35 132 +~ 0.5;
#X obj 36 107 *~ -0.5;
#X obj 36 83 cos~;
#X obj 37 26 inlet~;
#X obj 36 165 outlet~;
#X obj 36 58 /~ 64;
#X connect 0 0 4 0;
#X connect 1 0 0 0;
#X connect 2 0 1 0;
#X connect 3 0 5 0;
#X connect 5 0 2 0;
#X restore 307 348 pd hanning;
#X obj 307 324 *~ 2048;
#X obj 407 371 tabread4~ window-\$2;
#X connect 0 0 30 0;
#X connect 0 0 34 0;
#X connect 1 0 0 0;
#X connect 2 0 1 0;
#X connect 3 0 5 1;
#X connect 4 0 2 0;
#X connect 4 1 5 0;
#X connect 5 0 2 1;
#X connect 6 0 2 2;
#X connect 6 0 31 0;
#X connect 7 0 6 0;
#X connect 7 1 6 1;
#X connect 8 0 3 0;
#X connect 8 0 6 0;
#X connect 9 0 7 0;
#X connect 11 0 13 0;
#X connect 13 0 4 0;
#X connect 16 0 8 0;
#X connect 17 0 9 0;
#X connect 27 0 32 0;
#X connect 29 0 12 0;
#X connect 30 0 29 0;
#X connect 31 0 27 0;
#X connect 32 0 35 0;
#X connect 33 0 29 1;
#X connect 34 0 33 0;
#X connect 35 0 29 1;
