#N canvas 685 95 465 532 12;
#X obj 162 178 readsf~;
#X msg 91 103 1, f 4;
#X msg 50 261 start;
#X msg 280 262 stop;
#X obj 262 399 list prepend open;
#X obj 262 426 list trim;
#X obj 262 345 receive writeName;
#X obj 162 70 list prepend open;
#X obj 162 102 list trim;
#X obj 162 37 receive readName;
#X obj 187 257 r biquad;
#X obj 161 466 writesf~;
#X obj 262 373 list prepend -rate 44100;
#X obj 50 40 loadbang;
#X obj 161 306 biquad~;
#X msg 332 256 \; pd quit;
#X obj 50 64 delay 100;
#X obj 280 207 delay 10;
#X obj 332 232 delay 10;
#X connect 0 0 14 0;
#X connect 0 1 17 0;
#X connect 1 0 0 0;
#X connect 2 0 11 0;
#X connect 3 0 11 0;
#X connect 4 0 5 0;
#X connect 5 0 11 0;
#X connect 6 0 12 0;
#X connect 7 0 8 0;
#X connect 8 0 0 0;
#X connect 9 0 7 0;
#X connect 10 0 14 0;
#X connect 12 0 4 0;
#X connect 13 0 16 0;
#X connect 14 0 11 0;
#X connect 16 0 1 0;
#X connect 16 0 2 0;
#X connect 17 0 3 0;
#X connect 17 0 18 0;
#X connect 18 0 15 0;
