#N canvas 177 169 1123 572 12;
#N canvas 381 303 461 384 hann_env 0;
#N canvas 0 22 450 300 (subpatch) 0;
#X array hann 441 float 1;
#A 0 4.51803e-05 0.000175685 0.000391483 0.000692576 0.0010789 0.00155035
0.00210688 0.00274837 0.00347474 0.00428584 0.00518158 0.00616178 0.00722626
0.00837481 0.00960734 0.0109285 0.0123331 0.0138209 0.0153916 0.0170451
0.018781 0.0205991 0.0224989 0.0244803 0.0265428 0.0286861 0.0309099
0.0332138 0.0355973 0.0380601 0.0406064 0.0432311 0.0459338 0.0487139
0.051571 0.0545046 0.0575143 0.0605995 0.0637597 0.0669943 0.0703029
0.0736848 0.0771396 0.0806665 0.0842649 0.0879385 0.0916825 0.0954961
0.0993787 0.10333 0.107348 0.111434 0.115586 0.119804 0.124086 0.128433
0.132843 0.137316 0.14185 0.146446 0.151106 0.155825 0.160603 0.165439
0.170332 0.175281 0.180286 0.185345 0.190458 0.195624 0.200841 0.20611
0.211429 0.216798 0.222214 0.227681 0.233194 0.238753 0.244357 0.250004
0.255693 0.261424 0.267196 0.273008 0.278859 0.284747 0.290672 0.296633
0.302628 0.308658 0.314722 0.320817 0.326943 0.333099 0.339282 0.345494
0.351732 0.357995 0.364282 0.370592 0.376925 0.383278 0.389652 0.396044
0.402455 0.408882 0.415326 0.421783 0.428254 0.434738 0.441232 0.447737
0.45425 0.460771 0.467299 0.473832 0.48037 0.486912 0.493455 0.5 0.506545
0.513088 0.51963 0.526168 0.532701 0.539229 0.54575 0.552263 0.558768
0.565262 0.571745 0.578216 0.584674 0.591118 0.597545 0.603956 0.610348
0.616722 0.623075 0.629408 0.635718 0.642005 0.648268 0.654506 0.660717
0.666901 0.673057 0.679183 0.685278 0.691342 0.697371 0.703367 0.709328
0.715253 0.721141 0.726992 0.732803 0.738575 0.744307 0.749996 0.755643
0.761247 0.766806 0.772319 0.777786 0.783202 0.788571 0.79389 0.799159
0.804376 0.809542 0.814655 0.819714 0.824719 0.829668 0.834561 0.839397
0.844175 0.848894 0.853554 0.85815 0.862685 0.867158 0.871568 0.875914
0.880197 0.884414 0.888566 0.892652 0.896671 0.900622 0.904504 0.908318
0.912062 0.915736 0.919334 0.922861 0.926316 0.929698 0.933006 0.936241
0.939401 0.942486 0.945496 0.94843 0.951287 0.954067 0.956769 0.959394
0.96194 0.964403 0.966787 0.969091 0.971314 0.973458 0.97552 0.977502
0.979401 0.981219 0.982955 0.984609 0.98618 0.987667 0.989072 0.990393
0.991625 0.992774 0.993839 0.994819 0.995714 0.996526 0.997252 0.997893
0.99845 0.998921 0.999308 0.999609 0.999824 0.999955 1 0.999955 0.999824
0.999608 0.999307 0.998921 0.998449 0.997893 0.997251 0.996525 0.995714
0.994818 0.993838 0.992773 0.991625 0.990392 0.989071 0.987666 0.986179
0.984608 0.982954 0.981218 0.9794 0.9775 0.975519 0.973456 0.971313
0.969089 0.966785 0.964402 0.961939 0.959392 0.956768 0.954065 0.951285
0.948428 0.945494 0.942484 0.939399 0.936239 0.933004 0.929695 0.926313
0.922859 0.919332 0.915733 0.912059 0.908315 0.904502 0.900619 0.896668
0.892649 0.888564 0.884412 0.880194 0.875912 0.871565 0.867155 0.862682
0.858147 0.853551 0.848891 0.844172 0.839394 0.834558 0.829665 0.824716
0.819711 0.814652 0.809539 0.804373 0.799155 0.793886 0.788567 0.783199
0.777782 0.772315 0.766802 0.761243 0.75564 0.749993 0.744303 0.738572
0.7328 0.726988 0.721137 0.715249 0.709324 0.703363 0.697368 0.691338
0.685274 0.679179 0.673053 0.666897 0.660713 0.654502 0.648264 0.642001
0.635714 0.629404 0.623071 0.616717 0.610344 0.603952 0.597541 0.591113
0.58467 0.578212 0.571741 0.565258 0.558764 0.552259 0.545746 0.539225
0.532697 0.526163 0.519625 0.513084 0.506541 0.499996 0.493451 0.486907
0.480366 0.473828 0.467295 0.460767 0.454246 0.447732 0.441228 0.434734
0.42825 0.421779 0.415321 0.408878 0.40245 0.39604 0.389648 0.383274
0.376921 0.370588 0.364278 0.35799 0.351728 0.34549 0.339278 0.333094
0.326939 0.320813 0.314718 0.308654 0.302624 0.296629 0.290668 0.284743
0.278855 0.273004 0.267193 0.261421 0.255689 0.25 0.244353 0.23875
0.233191 0.227678 0.222211 0.216794 0.211426 0.206107 0.200838 0.19562
0.190455 0.185342 0.180282 0.175278 0.170329 0.165436 0.1606 0.155822
0.151103 0.146443 0.141847 0.137312 0.132839 0.128429 0.124083 0.1198
0.115583 0.111431 0.107345 0.103327 0.0993756 0.0954931 0.0916795 0.0879357
0.084262 0.0806635 0.0771367 0.073682 0.0703002 0.0669916 0.0637571
;
#X coords 0 1 440 0 200 140 1 0 0;
#X restore 204 201 graph;
#X text 184 331 0;
#X text 183 194 1;
#X obj 52 217 cos~;
#X obj 52 240 *~ -0.5;
#X obj 52 265 +~ 0.5;
#X msg 52 140 0 \, 1 10;
#X obj 52 188 vline~;
#X text 200 344 0;
#X text 389 346 441;
#X obj 18 93 bng 15 250 50 0 empty empty empty 17 7 0 10 -262144 -1
-1;
#X msg 276 108 441;
#X obj 52 307 tabwrite~ hann;
#X obj 276 133 array size hann;
#X text 43 92 Hann window;
#X obj 18 66 loadbang;
#X text 18 22 Autogenerate a Hanning window for 10 ms:;
#X text 118 140 10 ms = 441 samples;
#X connect 3 0 4 0;
#X connect 4 0 5 0;
#X connect 5 0 12 0;
#X connect 6 0 7 0;
#X connect 7 0 3 0;
#X connect 10 0 6 0;
#X connect 10 0 11 0;
#X connect 10 0 12 0;
#X connect 11 0 13 0;
#X connect 15 0 10 0;
#X restore 231 536 pd hann_env;
#X obj 41 26 hradio 30 1 0 6 scroll_sound scroll_sound_rcv (1-6)__scroll_sound
0 -8 0 12 -159808 -203904 -45076 0;
#X obj 239 29 bng 25 250 50 0 load_sound load_sound_rcv (l)__load_sound
27 12 0 12 -203904 -159808 -45076;
#X obj 39 91 cnv 15 312 140 empty empty empty 20 12 0 14 -261682 -66577
0;
#N canvas 603 163 661 449 loadsound 0;
#X msg 413 174 sounds/\$1.wav;
#X floatatom 413 149 5 0 0 0 - - -;
#X obj 50 136 openpanel;
#X obj 245 328 soundfiler;
#X obj 50 109 r load_sound;
#X obj 413 100 r scroll_sound;
#X obj 413 124 + 1;
#X floatatom 245 352 8 0 0 0 - - -;
#X obj 245 377 s samplelength;
#X obj 413 201 symbol;
#X msg 50 166 read -resize \$1 sample;
#X msg 413 226 read -resize \$1 sample;
#X obj 255 98 r sampleload;
#X text 48 85 Load your own sound:;
#X text 413 46 Scroll through sounds:;
#X text 411 65 (1-6.wav in files subdir);
#X text 251 67 Autoload 1.wav;
#X obj 261 220 s sampleload;
#X floatatom 261 185 5 0 0 0 - - -;
#X connect 0 0 9 0;
#X connect 1 0 0 0;
#X connect 2 0 10 0;
#X connect 3 0 7 0;
#X connect 4 0 2 0;
#X connect 5 0 6 0;
#X connect 6 0 1 0;
#X connect 7 0 8 0;
#X connect 9 0 11 0;
#X connect 10 0 3 0;
#X connect 11 0 3 0;
#X connect 12 0 1 0;
#X connect 18 0 17 0;
#X restore 139 536 pd loadsound;
#X obj 42 252 hsl 308 15 0 1 0 0 locator locator_rcv locator -2 -8
0 10 -262144 -1 -1 15350 1;
#N canvas 255 454 871 699 granulizer 0;
#N canvas 644 69 796 690 autoplay 0;
#X obj 465 508 spigot;
#X obj 543 223 sel 1;
#X obj 402 278 f;
#X obj 302 549 spigot;
#X obj 105 383 - 1;
#X obj 105 405 abs;
#X obj 104 430 tgl 15 0 empty empty empty 17 7 0 10 -262144 -1 -1 1
1;
#X obj 164 359 sel 0;
#X obj 173 415 f;
#X floatatom 94 71 10 0 0 0 - - -;
#X obj 94 90 / 44.1;
#X floatatom 94 112 10 0 0 0 - - -;
#X floatatom 94 157 15 0 0 0 - - -;
#X obj 94 135 expr 1000/$f1;
#X obj 500 189 t f f;
#X floatatom 414 300 5 0 0 0 - - -;
#X obj 93 202 t b f;
#X obj 109 326 r freeze;
#X obj 94 49 r samplelength;
#X floatatom 465 529 5 0 0 0 - - -;
#X obj 215 193 * 4;
#X obj 215 167 r speed;
#X obj 500 146 r autoplay;
#X obj 420 221 r locator;
#X obj 328 437 snapshot~;
#X obj 419 378 tgl 15 0 empty empty empty 17 7 0 10 -262144 -1 -1 1
1;
#X obj 419 398 metro 10;
#X obj 419 354 loadbang;
#X floatatom 328 475 5 0 0 0 - - -;
#X obj 302 611 s locator_rcv;
#X obj 181 256 *;
#X obj 319 368 phasor~ 0.2;
#X text 314 79 Autoplay function;
#X text 315 101 with freeze option;
#X connect 0 0 3 0;
#X connect 0 0 19 0;
#X connect 1 0 2 0;
#X connect 2 0 15 0;
#X connect 2 0 31 1;
#X connect 3 0 8 1;
#X connect 3 0 29 0;
#X connect 4 0 5 0;
#X connect 5 0 6 0;
#X connect 6 0 3 1;
#X connect 7 0 8 0;
#X connect 8 0 31 1;
#X connect 9 0 10 0;
#X connect 10 0 11 0;
#X connect 11 0 13 0;
#X connect 12 0 16 0;
#X connect 13 0 12 0;
#X connect 14 0 0 1;
#X connect 14 1 1 0;
#X connect 16 0 30 0;
#X connect 16 1 30 1;
#X connect 17 0 4 0;
#X connect 17 0 7 0;
#X connect 18 0 9 0;
#X connect 20 0 30 0;
#X connect 21 0 20 0;
#X connect 22 0 14 0;
#X connect 23 0 2 1;
#X connect 24 0 28 0;
#X connect 25 0 26 0;
#X connect 26 0 24 0;
#X connect 27 0 25 0;
#X connect 28 0 0 0;
#X connect 30 0 31 0;
#X connect 31 0 24 0;
#X restore 566 84 pd autoplay;
#X obj 48 213 metro 1000;
#X obj 125 158 * 1000;
#X obj 48 240 random 100;
#X floatatom 48 261 5 0 0 0 - - -;
#X obj 53 314 < 100;
#X obj 53 342 tgl 15 0 empty empty empty 17 7 0 10 -262144 -1 -1 1
1;
#X obj 53 371 sel 1;
#X obj 53 417 bng 15 250 50 0 empty empty empty 17 7 0 10 -262144 -1
-1;
#X obj 141 295 * 100;
#X floatatom 126 182 5 0 0 0 - - -;
#X obj 48 131 r on_off;
#X obj 49 159 tgl 15 0 empty empty empty 17 7 0 10 -262144 -1 -1 0
1;
#X obj 48 189 change;
#X obj 124 101 r density;
#X obj 137 390 r one_grain;
#X obj 141 268 r chance;
#X msg 55 611 next 1;
#X obj 55 641 clone grain3 16 \$0;
#X obj 79 546 random 10000;
#X obj 79 570 s mystart;
#X obj 182 585 + 1;
#X obj 182 564 / 10000;
#X obj 182 543 random 200;
#X obj 182 609 s mypitch;
#X obj 341 526 s grainstart;
#X obj 357 483 f;
#X obj 327 460 t f b;
#X obj 341 504 *;
#X obj 327 435 r locator;
#X obj 373 461 r samplelength;
#X obj 571 550 dac~;
#X obj 598 279 rev3~ 95 90;
#X obj 565 223 catch~ bus;
#X obj 292 64 r overlap;
#X obj 292 131 /;
#X obj 292 107 t b f;
#X obj 260 64 / 2;
#X obj 171 205 metro 100;
#X obj 260 42 r size;
#X obj 198 114 r on_off;
#X obj 199 142 tgl 15 0 empty empty empty 17 7 0 10 -262144 -1 -1 0
1;
#X obj 198 172 change;
#X obj 545 398 +~;
#X obj 625 401 +~;
#X obj 751 196 vsl 15 128 0 1 0 0 empty volume empty 0 -9 0 10 -262144
-1 -1 7620 1;
#X obj 751 332 * 0.8;
#X obj 545 422 *~ 0.8;
#X obj 625 425 *~ 0.8;
#X text 26 108 Autoplay:;
#X text 124 77 Density:;
#X text 256 20 Overlap:;
#X text 140 247 Chance:;
#X text 136 366 One grain bang:;
#X text 326 412 Grainstart:;
#X text 565 58 Autoplay subpatch:;
#X text 565 189 Master bus w/reverb:;
#X text 46 477 Grain subpatch from Farnell:;
#X text 78 503 with individual randomization;
#X text 78 519 for start and pitch.;
#X text 275 288 ¡¡ Keep Samplerate @ 44.1kHz !!;
#X obj 684 499 r mute;
#X obj 684 547 abs;
#X obj 684 573 tgl 15 0 empty empty empty 17 7 0 10 -262144 -1 -1 1
1;
#X obj 684 523 - 1;
#X obj 546 488 *~;
#X obj 609 487 *~;
#X text 683 470 mute:;
#X connect 1 0 3 0;
#X connect 2 0 10 0;
#X connect 3 0 4 0;
#X connect 4 0 5 0;
#X connect 5 0 6 0;
#X connect 6 0 7 0;
#X connect 7 0 8 0;
#X connect 8 0 17 0;
#X connect 8 0 19 0;
#X connect 8 0 23 0;
#X connect 9 0 5 1;
#X connect 10 0 1 1;
#X connect 11 0 12 0;
#X connect 12 0 13 0;
#X connect 13 0 1 0;
#X connect 14 0 2 0;
#X connect 15 0 8 0;
#X connect 16 0 9 0;
#X connect 17 0 18 0;
#X connect 19 0 20 0;
#X connect 21 0 24 0;
#X connect 22 0 21 0;
#X connect 23 0 22 0;
#X connect 26 0 28 1;
#X connect 27 0 28 0;
#X connect 27 1 26 0;
#X connect 28 0 25 0;
#X connect 29 0 27 0;
#X connect 30 0 26 1;
#X connect 32 0 43 1;
#X connect 32 1 44 1;
#X connect 33 0 32 0;
#X connect 33 0 43 0;
#X connect 33 0 44 0;
#X connect 34 0 36 0;
#X connect 35 0 38 1;
#X connect 36 0 35 0;
#X connect 36 1 35 1;
#X connect 37 0 35 0;
#X connect 38 0 3 0;
#X connect 39 0 37 0;
#X connect 40 0 41 0;
#X connect 41 0 42 0;
#X connect 42 0 38 0;
#X connect 43 0 47 0;
#X connect 44 0 48 0;
#X connect 45 0 46 0;
#X connect 46 0 48 1;
#X connect 46 0 47 1;
#X connect 47 0 65 0;
#X connect 48 0 66 0;
#X connect 61 0 64 0;
#X connect 62 0 63 0;
#X connect 63 0 66 1;
#X connect 63 0 65 1;
#X connect 64 0 62 0;
#X connect 65 0 31 0;
#X connect 66 0 31 1;
#X restore 40 536 pd granulizer;
#X obj 441 173 tgl 40 0 autoplay autoplay_rcv (p)__play_(autoscroll)
45 18 0 15 -262130 -260097 -83269 0 1;
#X obj 440 273 tgl 40 0 freeze freeze_rcv (f)__freeze 45 18 0 15 -204800
-4160 -13330 0 1;
#X obj 443 239 hsl 128 15 0 1 0 0 speed speed_rcv speed -2 -8 0 10
-262144 -1 -1 1270 1;
#X obj 437 70 tgl 80 0 on_off on_off_rcv (o)__auto_grainbangs 0 -17
0 18 -260097 -257985 -86853 0 1;
#X obj 40 331 hsl 308 15 0 1 0 0 density density_rcv density -2 -8
0 10 -262144 -1 -1 6140 1;
#X obj 42 374 hsl 308 15 0 1 0 0 chance chance_rcv chance -2 -8 0 10
-262144 -1 -1 24560 1;
#X obj 759 102 bng 50 250 50 0 one_grain space_rcv (space)__one_grain_bang!
55 25 0 16 -203904 -4160 -13330;
#X obj 43 410 hsl 308 15 0.1 2 0 0 pitch pitch_rcv pitch -2 -8 0 10
-262144 -1 -1 2424 1;
#X obj 44 481 hsl 308 15 0 5000 0 0 size size_rcv size -2 -8 0 10 -262144
-1 -1 10438 1;
#X obj 43 446 hsl 308 15 0.1 2 0 0 overlap overlap_rcv overlap -2 -8
0 10 -262144 -1 -1 7271 1;
#N canvas 697 218 247 356 load 0;
#X obj 43 27 loadbang;
#X msg 43 56 \; pd dsp 1 \; sample_seconds_rcv 10 \; pitch_rcv 0.25
\; size_rcv 1700 \; locator_rcv 0.5 \; speed_rcv 0.1 \; freeze_rcv
0 \; autoplay_rcv 0 \; on_off_rcv 0 \; volume_rcv 0.6 \; density_rcv
0.2 \; chance_rcv 0.8 \; overlap_rcv 0.55 \; keyboard_rcv 1 \; mute_rcv
0 \; sampleload 1 \;;
#X connect 0 0 1 0;
#X restore 316 536 pd load;
#X obj 437 351 vsl 64 128 0 1 0 0 volume volume_rcv volume 14 -9 0
10 -162280 -260097 -1 7620 1;
#N canvas 256 179 1014 569 keys 0;
#X obj 118 124 key;
#X floatatom 118 172 5 0 0 0 - - -;
#X obj 118 149 spigot;
#X obj 411 58 tgl 15 0 empty keyboard empty 17 7 0 10 -262144 -1 -1
0 1;
#X obj 574 143 keyname;
#X floatatom 576 207 5 0 0 0 - - -;
#X symbolatom 626 206 10 0 0 0 - - -;
#X obj 576 181 spigot;
#X obj 626 180 spigot;
#N canvas 615 170 422 660 p-wheel 0;
#X obj 71 307 vsl 15 128 -10 10 0 0 empty empty empty 0 -9 0 10 -262144
-1 -1 6350 1;
#X floatatom 71 277 5 0 0 0 - - -;
#X obj 163 77 key;
#X floatatom 163 129 5 0 0 0 - - -;
#X obj 163 102 spigot;
#X obj 202 80 tgl 15 0 empty empty empty 17 7 0 10 -262144 -1 -1 0
1;
#X obj 172 324 vline~;
#X obj 172 365 snapshot~;
#X obj 232 310 tgl 15 0 empty empty empty 17 7 0 10 -262144 -1 -1 1
1;
#X obj 172 213 keyup;
#X obj 232 333 metro 50;
#X obj 232 284 loadbang;
#X floatatom 172 413 5 0 0 0 - - -;
#X obj 172 389 / 100;
#X obj 234 433 r pitch;
#X obj 172 483 +;
#X obj 172 571 s pitch_rcv;
#X msg 114 212 10 2000;
#X msg 234 213 -10 2000;
#X msg 172 238 0 200;
#X obj 172 516 min 2;
#X obj 172 540 max 0.1;
#X obj 202 54 r keyboard;
#X text 26 76 a = pitch-up;
#X text 25 93 s = pitch-down;
#X text 22 44 "Pitch Wheel";
#X obj 163 155 select 119 115;
#X obj 59 189 s w_rcv;
#X obj 298 191 s s_rcv;
#X connect 1 0 0 0;
#X connect 2 0 4 0;
#X connect 3 0 26 0;
#X connect 4 0 3 0;
#X connect 5 0 4 1;
#X connect 6 0 7 0;
#X connect 7 0 1 0;
#X connect 7 0 13 0;
#X connect 8 0 10 0;
#X connect 9 0 19 0;
#X connect 10 0 7 0;
#X connect 11 0 8 0;
#X connect 12 0 15 0;
#X connect 13 0 12 0;
#X connect 14 0 15 1;
#X connect 15 0 20 0;
#X connect 17 0 6 0;
#X connect 18 0 6 0;
#X connect 19 0 6 0;
#X connect 20 0 21 0;
#X connect 21 0 16 0;
#X connect 22 0 5 0;
#X connect 26 0 17 0;
#X connect 26 0 27 0;
#X connect 26 1 18 0;
#X connect 26 1 28 0;
#X restore 42 492 pd p-wheel;
#N canvas 733 192 450 300 random_loc 0;
#X obj 37 37 inlet;
#X obj 37 61 random 1000;
#X obj 37 85 / 1000;
#X obj 37 109 s locator_rcv \$1;
#X connect 0 0 1 0;
#X connect 1 0 2 0;
#X connect 2 0 3 0;
#X restore 620 465 pd random_loc;
#X obj 642 439 s shift_rcv;
#X obj 205 393 s @_rcv;
#N canvas 631 309 450 300 random_pitch 0;
#X obj 37 37 inlet;
#X obj 37 61 random 1000;
#X obj 37 109 + 0.1;
#X obj 37 171 s pitch_rcv \$1;
#X obj 37 85 / 500;
#X obj 37 133 min 2;
#X connect 0 0 1 0;
#X connect 1 0 4 0;
#X connect 2 0 5 0;
#X connect 4 0 2 0;
#X connect 5 0 3 0;
#X restore 205 430 pd random_pitch;
#X obj 577 307 select Shift_L Super_L;
#X obj 779 469 s super_rcv;
#X obj 412 411 r super_rcv;
#X obj 412 444 s one_grain;
#X obj 578 355 spigot;
#X obj 779 439 spigot;
#X obj 49 402 s space_rcv;
#X text 311 24 Key mappings for playing the patch:;
#X text 618 410 Shift (rnd loc):;
#X text 756 408 fn (randmized grainbang):;
#X text 7 235 l (load sound):;
#X text 15 379 space (grainbang):;
#X text 200 363 @ (rnd pitch):;
#X text 363 387 randomized grainbang hub:;
#X text 40 467 pitch-wheel subpatch:;
#X obj 546 240 - 1;
#X obj 546 264 abs;
#X obj 684 247 - 1;
#X obj 684 271 abs;
#X text 137 501 scrub subpatch:;
#N canvas 1018 60 422 660 scrub 0;
#X obj 71 307 vsl 15 128 -10 10 0 0 empty empty empty 0 -9 0 10 -262144
-1 -1 6350 1;
#X floatatom 71 277 5 0 0 0 - - -;
#X obj 163 77 key;
#X floatatom 163 129 5 0 0 0 - - -;
#X obj 163 102 spigot;
#X obj 202 80 tgl 15 0 empty empty empty 17 7 0 10 -262144 -1 -1 0
1;
#X obj 172 324 vline~;
#X obj 172 365 snapshot~;
#X obj 232 310 tgl 15 0 empty empty empty 17 7 0 10 -262144 -1 -1 1
1;
#X obj 172 213 keyup;
#X obj 232 333 metro 50;
#X obj 232 284 loadbang;
#X floatatom 172 413 5 0 0 0 - - -;
#X obj 172 389 / 100;
#X obj 172 483 +;
#X obj 59 189 s a_rcv;
#X obj 298 191 s d_rcv;
#X obj 202 54 r keyboard;
#X text 22 44 Scrub;
#X text 26 76 a = left;
#X text 25 93 d = right;
#X obj 172 571 s locator_rcv;
#X obj 234 433 r locator;
#X msg 172 238 0 300;
#X obj 172 513 expr if($f1 > 1 \, 0 \, $f1);
#X obj 172 540 expr if($f1 < 0 \, 1 \, $f1);
#X obj 163 155 select 97 100;
#X msg 110 212 -10 5000;
#X msg 233 213 10 5000;
#X connect 1 0 0 0;
#X connect 2 0 4 0;
#X connect 3 0 26 0;
#X connect 4 0 3 0;
#X connect 5 0 4 1;
#X connect 6 0 7 0;
#X connect 7 0 1 0;
#X connect 7 0 13 0;
#X connect 8 0 10 0;
#X connect 9 0 23 0;
#X connect 10 0 7 0;
#X connect 11 0 8 0;
#X connect 12 0 14 0;
#X connect 13 0 12 0;
#X connect 14 0 24 0;
#X connect 17 0 5 0;
#X connect 22 0 14 1;
#X connect 23 0 6 0;
#X connect 24 0 25 0;
#X connect 25 0 21 0;
#X connect 26 0 15 0;
#X connect 26 0 27 0;
#X connect 26 1 16 0;
#X connect 26 1 28 0;
#X connect 27 0 6 0;
#X connect 28 0 6 0;
#X restore 139 526 pd scrub;
#X obj 287 508 s record_rcv;
#X text 292 485 r (record):;
#X obj 817 131 key;
#X floatatom 817 179 5 0 0 0 - - -;
#X obj 817 156 spigot;
#X obj 817 201 select 49 50 51 52 53 54;
#X obj 817 298 s scroll_sound_rcv;
#X msg 817 236 0;
#X msg 846 236 1;
#X msg 875 236 2;
#X msg 904 236 3;
#X msg 933 236 4;
#X msg 962 236 5;
#X text 812 104 Scroll sounds:;
#X text 259 241 f (freeze):;
#X text 289 296 m (mute):;
#X obj 303 319 s mute_rcv;
#X obj 273 264 s freeze_rcv;
#X obj 121 328 s autoplay_rcv;
#X text 119 304 p (play):;
#X obj 10 261 s load_sound_rcv;
#X text 386 297 o (grainbangs):;
#X text 425 194 k (keyboard):;
#X obj 422 217 s keyboard_rcv;
#X obj 422 124 key;
#X floatatom 422 148 5 0 0 0 - - -;
#X obj 422 171 select 107;
#X obj 117 194 select 108 32 112 64 114 102 109 111;
#X obj 388 320 s on_off_rcv;
#X connect 0 0 2 0;
#X connect 1 0 62 0;
#X connect 2 0 1 0;
#X connect 3 0 2 1;
#X connect 3 0 7 1;
#X connect 3 0 8 1;
#X connect 3 0 39 1;
#X connect 4 0 7 0;
#X connect 4 1 8 0;
#X connect 5 0 29 0;
#X connect 5 0 31 0;
#X connect 6 0 14 0;
#X connect 7 0 5 0;
#X connect 8 0 6 0;
#X connect 14 0 18 0;
#X connect 14 1 19 0;
#X connect 16 0 13 0;
#X connect 16 0 10 0;
#X connect 16 0 17 0;
#X connect 18 0 10 0;
#X connect 18 0 11 0;
#X connect 19 0 15 0;
#X connect 29 0 30 0;
#X connect 30 0 18 1;
#X connect 31 0 32 0;
#X connect 32 0 19 1;
#X connect 37 0 39 0;
#X connect 38 0 40 0;
#X connect 39 0 38 0;
#X connect 40 0 42 0;
#X connect 40 1 43 0;
#X connect 40 2 44 0;
#X connect 40 3 45 0;
#X connect 40 4 46 0;
#X connect 40 5 47 0;
#X connect 42 0 41 0;
#X connect 43 0 41 0;
#X connect 44 0 41 0;
#X connect 45 0 41 0;
#X connect 46 0 41 0;
#X connect 47 0 41 0;
#X connect 59 0 60 0;
#X connect 60 0 61 0;
#X connect 61 0 58 0;
#X connect 62 0 55 0;
#X connect 62 1 20 0;
#X connect 62 2 53 0;
#X connect 62 3 12 0;
#X connect 62 3 13 0;
#X connect 62 4 35 0;
#X connect 62 5 52 0;
#X connect 62 6 51 0;
#X connect 62 7 63 0;
#X restore 373 536 pd keys;
#X obj 764 35 tgl 40 0 keyboard keyboard_rcv (k)__keyboard 45 18 0
15 -232576 -258113 -16662 0 1;
#X obj 603 353 bng 40 250 50 0 empty shift_rcv (shift)__random_loc
45 20 0 16 -262130 -260097 -83269;
#X obj 809 213 bng 40 250 50 0 empty w_rcv (w)__pitch_up -38 -14 0
16 -261682 -260097 -86853;
#X obj 809 253 bng 40 250 50 0 empty s_rcv (s)__pitch_down -45 52 0
16 -261682 -260097 -86853;
#X text 649 384 (Don't scroll meanwhile);
#X obj 848 355 bng 40 250 50 0 empty @_rcv (@)__random_pitch 45 20
0 16 -262130 -260097 -83269;
#X obj 601 442 bng 40 250 50 0 empty super_rcv (fn)__random_grainbang
45 20 0 16 -261234 -260097 -86853;
#X text 953 541 Kristian Wentzel 2021;
#X obj 42 290 hsl 308 15 0 1 0 0 rec_locator rec_locator_rcv recorder
-2 -8 0 10 -262144 -258113 -1 19404 1;
#X obj 546 81 tgl 30 0 record record_rcv (r)__record 34 15 0 10 -258113
-4032 -258113 0 1;
#X floatatom 545 119 5 0 0 1 sample_seconds sample_seconds_rcv sample_seconds
;
#N canvas 366 132 1017 668 sampling_stereo 0;
#X msg 563 153 stop, f 7;
#X msg 335 321 start \$1;
#X obj 395 93 *;
#X obj 372 126 f;
#X obj 370 94 bng 15 250 50 0 empty empty empty 17 7 0 10 -262144 -1
-1;
#X obj 307 56 sel 1 0;
#X obj 84 240 *~;
#X obj 199 150 line~;
#X obj 345 365 line;
#X msg 574 326 \$1;
#X obj 514 290 pack 0 0;
#X obj 493 240 f;
#X obj 576 208 t b f;
#X obj 342 428 /;
#X floatatom 342 450 5 0 0 0 - - -;
#X msg 508 326 \$2 \$1;
#X obj 447 180 -;
#X obj 436 137 t b f;
#X obj 447 202 / 44.1;
#X obj 489 453 sel 1;
#X obj 489 476 spigot;
#X obj 488 501 bng 15 250 50 0 empty empty empty 17 7 0 10 -262144
-1 -1;
#X msg 518 561 0;
#X obj 497 622 f;
#X obj 583 588 / 44.1;
#X obj 123 241 *~;
#X obj 795 108 * 44100;
#X floatatom 795 84 5 0 0 0 - - -;
#X obj 832 183 % 64;
#X obj 814 214 -;
#X obj 794 132 int;
#X floatatom 813 243 15 0 0 0 - - -;
#X floatatom 228 37 5 0 0 0 - - -;
#X obj 191 115 pack 0 30;
#X obj 287 108 delay 30;
#X obj 552 123 delay 30;
#X obj 497 535 t b b b;
#X msg 549 562 0;
#X obj 794 154 t b f f;
#X obj 800 297 f;
#X obj 738 216 delay 500;
#X obj 795 61 r sample_seconds;
#X obj 800 323 s samplelength;
#X obj 582 558 r samplelength;
#X obj 557 433 r record;
#X obj 548 257 r samplelength;
#X obj 536 54 r samplelength;
#X obj 304 31 r record;
#X obj 175 87 r record;
#X obj 361 396 r samplelength;
#X obj 489 431 > 0.98;
#X obj 79 109 adc~;
#X obj 83 514 tabwrite~ sample;
#X obj 841 289 array size sample;
#X obj 391 55 r rec_locator;
#X obj 321 517 s rec_locator_rcv;
#X obj 712 29 r record;
#X obj 726 64 bng 15 250 50 0 empty empty empty 17 7 0 10 -262144 -1
-1;
#X connect 0 0 8 0;
#X connect 0 0 52 0;
#X connect 1 0 52 0;
#X connect 2 0 3 1;
#X connect 2 0 17 0;
#X connect 3 0 1 0;
#X connect 3 0 12 0;
#X connect 4 0 3 0;
#X connect 5 0 34 0;
#X connect 5 1 35 0;
#X connect 6 0 52 0;
#X connect 7 0 6 1;
#X connect 7 0 25 1;
#X connect 8 0 13 0;
#X connect 9 0 8 0;
#X connect 10 0 15 0;
#X connect 11 0 10 0;
#X connect 12 0 11 0;
#X connect 12 1 9 0;
#X connect 13 0 14 0;
#X connect 14 0 50 0;
#X connect 14 0 55 0;
#X connect 15 0 8 0;
#X connect 16 0 18 0;
#X connect 17 0 16 0;
#X connect 17 1 16 1;
#X connect 18 0 11 1;
#X connect 19 0 20 0;
#X connect 20 0 21 0;
#X connect 21 0 36 0;
#X connect 22 0 1 0;
#X connect 23 0 10 0;
#X connect 24 0 23 1;
#X connect 26 0 30 0;
#X connect 27 0 26 0;
#X connect 28 0 29 1;
#X connect 29 0 31 0;
#X connect 30 0 38 0;
#X connect 31 0 39 1;
#X connect 31 0 53 0;
#X connect 32 0 33 1;
#X connect 32 0 34 1;
#X connect 32 0 35 1;
#X connect 33 0 7 0;
#X connect 34 0 4 0;
#X connect 35 0 0 0;
#X connect 36 0 23 0;
#X connect 36 1 22 0;
#X connect 36 2 37 0;
#X connect 37 0 9 0;
#X connect 38 0 40 0;
#X connect 38 1 29 0;
#X connect 38 2 28 0;
#X connect 39 0 42 0;
#X connect 40 0 39 0;
#X connect 41 0 27 0;
#X connect 43 0 24 0;
#X connect 44 0 20 1;
#X connect 45 0 10 1;
#X connect 46 0 2 1;
#X connect 46 0 16 0;
#X connect 47 0 5 0;
#X connect 48 0 33 0;
#X connect 49 0 13 1;
#X connect 50 0 19 0;
#X connect 51 0 6 0;
#X connect 51 1 25 0;
#X connect 54 0 2 0;
#X connect 56 0 57 0;
#X connect 57 0 27 0;
#X restore 430 536 pd sampling_stereo;
#X obj 769 253 bng 40 250 50 0 empty a_rcv scrub_left__(a) -155 20
0 16 -261682 -260097 -86853;
#X obj 849 253 bng 40 250 50 0 empty d_rcv (d)__scrub_right 45 20 0
16 -261682 -260097 -86853;
#X text 51 32 1;
#X text 82 32 2;
#X text 111 32 3;
#X text 141 32 4;
#X text 171 32 5;
#X text 201 32 6;
#X obj 511 451 tgl 30 0 mute mute_rcv mute__(m) -22 40 0 10 -66577
-228856 -33289 0 1;
#N canvas 0 25 450 278 (subpatch) 0;
#X array sample 84940 float 2;
#X coords 0 1 84940 -1 312 140 1 0 0;
#X restore 39 91 graph;
